<?xml version="1.0" encoding="UTF-8" standalone="no"?>
<svg
   width="128"
   height="128"
   version="1.1"
   id="svg6"
   sodipodi:docname="icon.svg"
   inkscape:version="1.3.2 (091e20e, 2023-11-25, custom)"
   xmlns:inkscape="http://www.inkscape.org/namespaces/inkscape"
   xmlns:sodipodi="http://sodipodi.sourceforge.net/DTD/sodipodi-0.dtd"
   xmlns="http://www.w3.org/2000/svg"
   xmlns:svg="http://www.w3.org/2000/svg">
  <defs
     id="defs6" />
  <sodipodi:namedview
     id="namedview6"
     pagecolor="#505050"
     bordercolor="#eeeeee"
     borderopacity="1"
     inkscape:showpageshadow="0"
     inkscape:pageopacity="0"
     inkscape:pagecheckerboard="0"
     inkscape:deskcolor="#505050"
     inkscape:zoom="4.4912329"
     inkscape:cx="50.76557"
     inkscape:cy="76.037027"
     inkscape:window-width="1920"
     inkscape:window-height="1009"
     inkscape:window-x="-8"
     inkscape:window-y="-8"
     inkscape:window-maximized="1"
     inkscape:current-layer="svg6" />
  <path
     style="opacity:0.777778;fill:#78b5f4;fill-opacity:1;stroke-width:0.359209;stroke-linejoin:bevel;stroke-opacity:0.705882;paint-order:fill markers stroke"
     d="M 38.683901,4.4806625 C 28.033563,4.3697249 24.662908,18.990878 15.987649,22.90174 8.8918927,34.060995 2.2355658,46.060399 4.0833043,59.445391 c -6.4311875,10.682743 0.327366,20.067071 1.2030429,31.0632 2.9445306,8.747389 9.8138258,21.593359 18.6833828,27.720709 12.208922,7.32136 26.622011,11.35057 40.677677,7.57695 10.461318,1.74785 18.787026,1.05202 28.025074,-4.18373 8.629429,-5.05772 14.532339,-13.41103 23.582139,-18.67069 -1.76886,-11.233074 8.40023,-17.927504 9.4624,-28.138059 -5.7428,-12.89844 5.96187,-26.96803 -5.38292,-39.004844 C 116.48274,25.044883 106.18613,18.164103 98.583884,9.3922673 87.676129,8.1167972 79.654209,-3.5169908 68.317002,2.8751751 58.247005,-3.2433204 49.764828,3.9749403 40.227937,5.1922681 Z"
     id="path4" />
  <path
     id="path4-5"
     style="opacity:1;fill:#dda457;fill-opacity:1;stroke-width:0.363366;stroke-linejoin:bevel;stroke-opacity:0.705882;paint-order:fill markers stroke"
     d="m 74.874256,0.64185161 c -1.415455,0.0860422 -5.242499,1.35514169 -6.562353,2.33688829 3.973324,-0.3712134 14.613008,7.3044981 17.373348,10.8026521 2.475515,3.137196 4.783787,7.285605 5.986799,11.234466 1.643351,5.39431 1.096792,11.126014 -0.06058,14.547971 -2.410211,7.126024 -8.990661,11.157827 -14.845256,15.449696 -20.336257,14.908031 -40.87643,17.186973 -40.48014,35.537389 0.437231,20.246206 12.553861,25.709936 28.45783,35.224326 2.798903,1.67442 6.346711,1.30063 9.445967,1.43432 7.517725,-0.16283 13.120846,-1.86005 19.054278,-5.0234 8.753431,-5.1021 14.741221,-13.5286 23.921051,-18.83444 -1.79427,-11.331685 8.52019,-18.085482 9.59762,-28.385667 -5.82525,-13.011678 6.04837,-27.204328 -5.45944,-39.34681 C 117.39665,24.760702 106.95192,17.819563 99.240452,8.9707232 90.250553,7.9253046 83.373136,0.12522293 74.874256,0.64185161 Z"
     sodipodi:nodetypes="scssssssccccccs" />
  <g
     id="g6"
     transform="matrix(3.7102401,0,0,3.6797372,-65.210579,-22.378685)">
    <path
       id="path1"
       style="fill:#996e33;fill-opacity:1;stroke:#c99c5f;stroke-width:0.140229;stroke-linejoin:bevel;stroke-opacity:1;paint-order:fill markers stroke"
       d="m 40.86779,9.7988851 c 1.558215,1.9654339 2.341306,4.7342639 1.558978,7.1682839 -1.099199,2.518049 -3.813789,3.679917 -6.106864,4.865647 -2.639445,1.315 -5.532851,2.458255 -7.526842,4.714283 -2.009339,2.61867 -1.873061,6.575291 0.307956,9.053962 1.132081,1.530433 2.870259,2.736156 4.837622,2.691542 7.168899,0.80449 14.380898,-4.526315 15.775422,-11.595626 C 51.28917,19.91669 47.399138,12.308759 40.86779,9.7988851 Z"
       sodipodi:nodetypes="cccccccc" />
    <path
       d="M 35.243399,8.6128335 C 29.435828,8.321549 24.050415,12.291346 21.727006,17.470778 c -1.843918,3.877538 -1.883512,8.59549 0.154557,12.408976 1.602703,3.32929 4.496939,6.018737 7.944596,7.353038 -2.603499,-2.22973 -3.906029,-6.083281 -2.528127,-9.331039 0.963983,-2.64557 3.567271,-4.071319 5.904831,-5.328042 2.903583,-1.498616 6.270366,-2.56539 8.337355,-5.247029 1.203398,-2.048724 0.410505,-4.587303 -0.607377,-6.539822 C 39.783494,8.8448012 37.307435,8.4515022 35.243399,8.6128335 Z"
       style="fill:#336699;fill-opacity:1;stroke:#568ec7;stroke-width:0.140229;stroke-linejoin:bevel;stroke-opacity:1;paint-order:fill markers stroke"
       id="path1-7" />
    <circle
       style="fill:#336699;fill-opacity:1;stroke:#568ec7;stroke-width:0.140229;stroke-linejoin:bevel;stroke-opacity:1;paint-order:fill markers stroke"
       id="path6-3"
       cx="33.698223"
       cy="31.706347"
       r="2.0988157" />
  </g>
  <g
     id="g4"
     transform="matrix(-2.0207822,-0.08032817,-0.08985766,2.2502638,120.34283,5.3295125)">
    <g
       id="g7"
       transform="matrix(0.73459401,0.03166441,-0.0372476,0.73475101,9.0988059,7.8330632)">
      <path
         style="fill:#19363e;fill-opacity:1;stroke:#0f2930;stroke-width:0.159627;stroke-linejoin:bevel;stroke-opacity:1;paint-order:fill markers stroke"
         d="m 47.625399,45.037578 c 3.484713,6.159702 -2.244827,6.47852 -7.850329,6.017266 C 13.094802,46.819981 -6.5486369,30.331355 -9.2699972,22.217118 c -0.9669488,-2.576177 -3.0852678,-7.659219 -0.2440271,-9.435929 1.2404553,-0.775692 2.6082988,-0.973379 6.8190421,0.509649 5.931025,2.100023 11.3117921,5.505214 16.7158732,8.679675 2.173888,1.271411 4.315741,2.586635 6.530491,3.802806 8.567956,4.545235 21.878349,10.080214 27.074017,19.264259 z"
         id="path3"
         sodipodi:nodetypes="saasaacs" />
      <path
         style="fill:#19363e;fill-opacity:1;stroke:#0f2930;stroke-width:0.222357;stroke-linejoin:bevel;stroke-opacity:1;paint-order:fill markers stroke"
         d="M 1.503787,19.376422 C 13.878392,-1.5134694 51.526559,-11.348366 60.409393,17.870372 36.054186,5.9732899 34.754214,29.969695 38.662882,42.019788 20.219205,38.41975 4.1534731,27.079612 1.503787,19.376422 Z"
         id="path2"
         sodipodi:nodetypes="cccc" />
    </g>
  </g>
</svg>
