<?xml version="1.0" encoding="UTF-8" standalone="no"?>
<svg
   width="128"
   height="128"
   version="1.1"
   id="svg6"
   sodipodi:docname="icon.svg"
   inkscape:version="1.3.2 (091e20e, 2023-11-25, custom)"
   xmlns:inkscape="http://www.inkscape.org/namespaces/inkscape"
   xmlns:sodipodi="http://sodipodi.sourceforge.net/DTD/sodipodi-0.dtd"
   xmlns="http://www.w3.org/2000/svg"
   xmlns:svg="http://www.w3.org/2000/svg">
  <defs
     id="defs6" />
  <sodipodi:namedview
     id="namedview6"
     pagecolor="#505050"
     bordercolor="#eeeeee"
     borderopacity="1"
     inkscape:showpageshadow="0"
     inkscape:pageopacity="0"
     inkscape:pagecheckerboard="0"
     inkscape:deskcolor="#505050"
     inkscape:zoom="2.2456165"
     inkscape:cx="-5.3437442"
     inkscape:cy="9.1288964"
     inkscape:window-width="1920"
     inkscape:window-height="1009"
     inkscape:window-x="-8"
     inkscape:window-y="-8"
     inkscape:window-maximized="1"
     inkscape:current-layer="svg6" />
  <g
     id="g8"
     transform="matrix(0.51477375,0,0,0.52902901,2.4987081,28.855114)">
    <path
       style="opacity:0.777778;fill:#78b5f4;fill-opacity:1;stroke-width:0.696423;stroke-linejoin:bevel;stroke-opacity:0.705882;paint-order:fill markers stroke"
       d="M 70.027334,-46.347471 C 48.917319,-46.55785 42.23635,-18.830694 25.041134,-11.414241 10.976648,9.7478672 -2.2168457,32.503212 1.4455536,57.886146 -11.301692,78.144614 2.0944259,95.940788 3.8301021,116.79356 c 5.8363503,16.58831 19.4519689,40.94907 37.0322989,52.56881 24.199284,13.88404 52.76744,21.52492 80.627149,14.36873 20.73537,3.31457 37.23774,1.99503 55.54845,-7.93394 17.10436,-9.59129 28.80453,-25.43229 46.74212,-35.40657 -3.50604,-21.3021 16.65006,-33.99724 18.75538,-53.360269 -11.38278,-24.460245 11.81704,-51.141434 -10.66946,-73.967721 -7.6338,-20.4126429 -28.04268,-33.461167 -43.11105,-50.095837 -21.62025,-2.418767 -37.52049,-24.480767 -59.99194,-12.358837 -19.95972,-11.602948 -36.772231,2.085565 -55.675285,4.394073 z"
       id="path4" />
    <path
       id="path4-5"
       style="opacity:0.777778;fill:#f0a645;fill-opacity:1;stroke-width:0.696423;stroke-linejoin:bevel;stroke-opacity:0.705882;paint-order:fill markers stroke"
       d="m 141.33507,-53.735173 c -2.76583,0.161748 -9.91763,2.547488 -12.49665,4.393042 7.76395,-0.697832 28.33656,14.673261 33.73031,21.249331 4.8372,5.897513 9.34761,13.695975 11.69831,21.1193152 3.21115,10.1405897 2.14315,20.9154368 -0.11842,27.3482648 -4.70958,13.395984 -17.56791,20.975244 -29.0079,29.043391 -39.73742,28.025133 -76.469046,32.394085 -79.098936,66.805619 0.570743,45.7758 40.464786,54.46917 74.064716,68.91343 13.81963,1.2635 25.63838,-3.49667 37.23242,-9.44335 17.10435,-9.59128 28.80463,-25.43198 46.74219,-35.40625 -3.50604,-21.30208 16.64859,-33.99832 18.75391,-53.361327 -11.38265,-24.460237 11.81863,-51.14055 -10.66785,-73.966814 -7.63379,-20.4126236 -28.04298,-33.461053 -43.11133,-50.095703 -17.56643,-1.965249 -31.1138,-17.570143 -47.72077,-16.598949 z"
       sodipodi:nodetypes="scsssssccccccs" />
    <g
       id="g6"
       transform="matrix(7.161755,0,0,6.9174207,-129.87384,-96.068976)">
      <path
         id="path1"
         style="fill:#996e33;fill-opacity:1;stroke:#c99c5f;stroke-width:0.140229;stroke-linejoin:bevel;stroke-opacity:1;paint-order:fill markers stroke"
         d="m 40.86779,9.7988851 c 1.558215,1.9654339 2.341306,4.7342639 1.558978,7.1682839 -1.099199,2.518049 -3.813789,3.679917 -6.106864,4.865647 -2.639445,1.315 -5.532851,2.458255 -7.526842,4.714283 -2.009339,2.61867 -1.873061,6.575291 0.307956,9.053962 1.132081,1.530433 2.870259,2.736156 4.837622,2.691542 7.168899,0.80449 14.380898,-4.526315 15.775422,-11.595626 C 51.28917,19.91669 47.399138,12.308759 40.86779,9.7988851 Z"
         sodipodi:nodetypes="cccccccc" />
      <path
         d="M 35.243399,8.6128335 C 29.435828,8.321549 24.050415,12.291346 21.727006,17.470778 c -1.843918,3.877538 -1.883512,8.59549 0.154557,12.408976 1.602703,3.32929 4.496939,6.018737 7.944596,7.353038 -2.603499,-2.22973 -3.906029,-6.083281 -2.528127,-9.331039 0.963983,-2.64557 3.567271,-4.071319 5.904831,-5.328042 2.903583,-1.498616 6.270366,-2.56539 8.337355,-5.247029 1.203398,-2.048724 0.410505,-4.587303 -0.607377,-6.539822 C 39.783494,8.8448012 37.307435,8.4515022 35.243399,8.6128335 Z"
         style="fill:#336699;fill-opacity:1;stroke:#568ec7;stroke-width:0.140229;stroke-linejoin:bevel;stroke-opacity:1;paint-order:fill markers stroke"
         id="path1-7" />
      <circle
         style="fill:#336699;fill-opacity:1;stroke:#568ec7;stroke-width:0.140229;stroke-linejoin:bevel;stroke-opacity:1;paint-order:fill markers stroke"
         id="path6-3"
         cx="33.698223"
         cy="31.706347"
         r="2.0988157" />
    </g>
    <g
       id="g4"
       transform="matrix(-3.9006497,-0.15100638,-0.17344929,4.2301992,228.29382,-43.98122)">
      <g
         id="g7"
         transform="matrix(0.73459401,0.03166441,-0.0372476,0.73475101,9.0988059,7.8330632)">
        <path
           style="fill:#19363e;fill-opacity:1;stroke:#0f2930;stroke-width:0.159627;stroke-linejoin:bevel;stroke-opacity:1;paint-order:fill markers stroke"
           d="m 47.625399,45.037578 c 3.484713,6.159702 -2.244827,6.47852 -7.850329,6.017266 C 13.094802,46.819981 -6.5486369,30.331355 -9.2699972,22.217118 c -0.9669488,-2.576177 -3.0852678,-7.659219 -0.2440271,-9.435929 1.2404553,-0.775692 2.6082988,-0.973379 6.8190421,0.509649 5.931025,2.100023 11.3117921,5.505214 16.7158732,8.679675 2.173888,1.271411 4.315741,2.586635 6.530491,3.802806 8.567956,4.545235 21.878349,10.080214 27.074017,19.264259 z"
           id="path3"
           sodipodi:nodetypes="saasaacs" />
        <path
           style="fill:#19363e;fill-opacity:1;stroke:#0f2930;stroke-width:0.222357;stroke-linejoin:bevel;stroke-opacity:1;paint-order:fill markers stroke"
           d="M 1.503787,19.376422 C 13.878392,-1.5134694 51.526559,-11.348366 60.409393,17.870372 36.054186,5.9732899 34.754214,29.969695 38.662882,42.019788 20.219205,38.41975 4.1534731,27.079612 1.503787,19.376422 Z"
           id="path2"
           sodipodi:nodetypes="cccc" />
      </g>
    </g>
  </g>
</svg>
