<?xml version="1.0" encoding="UTF-8" standalone="no"?>
<!-- Created with Inkscape (http://www.inkscape.org/) -->

<svg
   width="220.20576"
   height="247.84744"
   viewBox="0 0 58.262774 65.576302"
   version="1.1"
   id="svg1"
   inkscape:export-filename="..\wizard_medium.png"
   inkscape:export-xdpi="111.24548"
   inkscape:export-ydpi="111.24548"
   sodipodi:docname="wizard_medium.svg"
   inkscape:version="1.3.2 (091e20e, 2023-11-25, custom)"
   xmlns:inkscape="http://www.inkscape.org/namespaces/inkscape"
   xmlns:sodipodi="http://sodipodi.sourceforge.net/DTD/sodipodi-0.dtd"
   xmlns="http://www.w3.org/2000/svg"
   xmlns:svg="http://www.w3.org/2000/svg">
  <sodipodi:namedview
     id="namedview1"
     pagecolor="#ffffff"
     bordercolor="#000000"
     borderopacity="0.25"
     inkscape:showpageshadow="2"
     inkscape:pageopacity="0.0"
     inkscape:pagecheckerboard="0"
     inkscape:deskcolor="#d1d1d1"
     inkscape:document-units="mm"
     inkscape:zoom="2.3194825"
     inkscape:cx="161.0273"
     inkscape:cy="126.53684"
     inkscape:window-width="1920"
     inkscape:window-height="1009"
     inkscape:window-x="394"
     inkscape:window-y="-8"
     inkscape:window-maximized="1"
     inkscape:current-layer="layer1" />
  <defs
     id="defs1" />
  <g
     inkscape:label="Layer 1"
     inkscape:groupmode="layer"
     id="layer1"
     transform="translate(-1.7051384,-0.53249097)">
    <g
       id="g6"
       transform="matrix(0.96066262,0,0,0.96066262,-1.6700044,-8.7885308)">
      <path
         style="fill:#19363e;fill-opacity:1;stroke:#000000;stroke-width:0.140229;stroke-linejoin:bevel;stroke-opacity:1;paint-order:fill markers stroke"
         d="m 25.754612,39.271216 c -3.59142,2.706887 -4.854825,7.679547 -6.259964,11.951679 -1.166248,3.545816 -0.656917,7.463591 -1.707077,11.067176 0.59254,3.041572 4.641252,2.060982 6.84134,3.034314 6.629738,1.03038 13.374127,0.548477 20.055072,0.669419 4.195773,0.434632 8.271902,-2.323136 7.982644,-6.836642 0.406691,-6.116356 1.678966,-13.75316 -2.430225,-18.360428 -3.290575,-3.689428 -9.442803,-3.503624 -14.385354,-3.608243 -3.435568,-0.07272 -7.352259,0.01441 -10.096436,2.082725 z"
         id="path15"
         sodipodi:nodetypes="aaccccaaa"
         transform="matrix(1.0409482,0,0,1.0409482,1.738388,9.1484051)" />
      <path
         style="fill:#c4a88f;fill-opacity:1;stroke:none;stroke-width:0.160339;stroke-linejoin:bevel;paint-order:fill markers stroke"
         d="m 20.264839,48.470104 c 0.677017,1.712267 2.060666,3.346888 3.819472,4.196874 6.430998,3.107938 14.576295,3.15963 21.71642,1.898587 5.06397,-0.894367 10.959947,-2.523531 13.750094,-6.495163 1.615654,-2.2998 1.430536,-5.615279 0.436509,-8.193897 -1.329275,-3.448296 -4.140372,-7.145571 -7.966323,-8.193895 -10.499074,-2.876781 -25.085096,-0.167317 -31.756172,7.794194 -1.992871,2.378366 -1.114494,6.174585 0,8.9933 z"
         id="path4"
         sodipodi:nodetypes="aaaaaaaa" />
      <path
         style="fill:#5f6f74;fill-opacity:1;stroke:#000000;stroke-width:0.160339;stroke-linejoin:bevel;stroke-opacity:1;paint-order:fill markers stroke"
         d="m 21.028733,50.568542 c 0,0 2.308455,1.977818 3.710344,2.598062 3.344336,1.479651 7.110433,2.136558 10.803647,2.498141 8.432517,0.825586 25.426761,-0.799406 25.426761,-0.799406 0,0 0.45042,-8.651857 -0.327382,-12.890396 -0.316447,-1.724442 -0.90844,-3.42484 -1.746047,-4.996276 -0.424838,-0.797041 -1.636915,-2.198363 -1.636915,-2.198363 l 0.545639,7.39449 c -1.355688,1.987133 -5.549472,3.184348 -9.494113,6.195385 0,0 -5.648039,-2.726463 -8.730218,-2.797915 -6.443765,-0.149381 -18.551716,4.996278 -18.551716,4.996278 z"
         id="path6"
         sodipodi:nodetypes="caacaacccac" />
      <path
         style="fill:#19363e;fill-opacity:1;stroke:#000000;stroke-width:0.144667;stroke-linejoin:bevel;stroke-opacity:1;paint-order:fill markers stroke"
         d="m 7.3530661,43.851815 c -0.3311376,0.404134 -0.4771444,0.868098 -0.6697357,1.310941 -2.9076833,5.54147 1.3270453,5.92663 6.5497266,6.133665 25.092141,-0.803199 45.10033,-13.120775 48.54109,-19.940133 1.187346,-2.153836 3.724173,-6.380602 1.307638,-8.248771 -1.055032,-0.815622 -2.293868,-1.138228 -6.347436,-0.29699 -5.710911,1.194667 -11.064079,3.594006 -16.41228,5.788454 -2.15077,0.877869 -4.27702,1.797655 -6.459137,2.622619 -8.949513,3.589834 -18.600726,3.324503 -26.5098659,12.630215 z"
         id="path3"
         sodipodi:nodetypes="caaasaacc" />
      <path
         style="fill:#19363e;fill-opacity:1;stroke:#000000;stroke-width:0.194972;stroke-linejoin:bevel;stroke-opacity:1;paint-order:fill markers stroke"
         d="M 50.588161,29.242116 C 43.47652,12.232759 22.139421,9.4308378 3.5657583,9.8362499 15.942248,17.727393 23.554032,25.482039 20.981232,40.127858 34.161883,38.925841 49.82291,35.96881 50.588161,29.242116 Z"
         id="path2"
         sodipodi:nodetypes="cccc" />
      <path
         style="fill:#71848a;fill-opacity:1;stroke:#000000;stroke-width:0.160339;stroke-linejoin:bevel;stroke-opacity:1;paint-order:fill markers stroke"
         d="m 38.052662,51.467869 c -0.02556,-0.002 -0.371949,-0.03355 -0.218258,0.09993 5.68581,4.937932 17.041725,-4.25209 15.870552,-6.218183 3.042373,1.612927 7.208109,-1.520969 8.028427,-3.774368 0.138176,-0.379577 0.408427,-0.722255 0.545639,-1.099182 0.0096,-0.02613 0.01852,-0.282816 0,-0.299777 -0.136941,-0.125394 -0.469784,0.01942 -0.545639,0.09993 -1.857956,1.971938 -8.59004,0.520651 -8.555466,4.179735 -10.320307,-0.190154 -8.661348,7.511549 -15.125255,7.01192 z"
         id="path5"
         sodipodi:nodetypes="sscscsscs" />
    </g>
  </g>
</svg>
